<svg width="32" height="32" viewBox="0 0 32 32" fill="none" xmlns="http://www.w3.org/2000/svg">
<g clip-path="url(#clip0_40_2)">
<path fill-rule="evenodd" clip-rule="evenodd" d="M22 15H11.414L15.535 10.88C15.926 10.49 15.926 9.85002 15.535 9.46002C15.145 9.07002 14.512 9.07002 14.121 9.46002L8.465 15.121C8.225 15.361 8.14999 15.689 8.20499 16C8.14999 16.311 8.225 16.639 8.465 16.879L14.121 22.535C14.512 22.926 15.145 22.926 15.535 22.535C15.926 22.145 15.926 21.512 15.535 21.121L11.414 17H22C22.553 17 23 16.552 23 16C23 15.447 22.553 15 22 15ZM28 32H4C1.791 32 0 30.209 0 28V4C0 1.79 1.791 0 4 0H28C30.209 0 32 1.79 32 4V28C32 30.209 30.209 32 28 32Z" fill="#C1082D"/>
<path d="M11.414 15H22C22.553 15 23 15.447 23 16C23 16.552 22.553 17 22 17H11.414L15.535 21.121C15.926 21.512 15.926 22.145 15.535 22.535C15.145 22.926 14.512 22.926 14.121 22.535L8.465 16.879C8.225 16.639 8.14999 16.311 8.20499 16C8.14999 15.689 8.225 15.361 8.465 15.121L14.121 9.46002C14.512 9.07002 15.145 9.07002 15.535 9.46002C15.926 9.85002 15.926 10.49 15.535 10.88L11.414 15Z" fill="white"/>
</g>
<defs>
<clipPath id="clip0_40_2">
<rect width="32" height="32" fill="white" transform="matrix(1 0 0 -1 0 32)"/>
</clipPath>
</defs>
</svg>
