<svg width="32" height="32" viewBox="0 0 32 32" fill="none" xmlns="http://www.w3.org/2000/svg">
<g clip-path="url(#clip0_40_2)">
<path fill-rule="evenodd" clip-rule="evenodd" d="M10 15H20.586L16.465 10.88C16.074 10.49 16.074 9.85002 16.465 9.46002C16.855 9.07002 17.488 9.07002 17.879 9.46002L23.535 15.121C23.775 15.361 23.85 15.689 23.795 16C23.85 16.311 23.775 16.639 23.535 16.879L17.879 22.535C17.488 22.926 16.855 22.926 16.465 22.535C16.074 22.145 16.074 21.512 16.465 21.121L20.586 17H10C9.447 17 9 16.552 9 16C9 15.447 9.447 15 10 15ZM4 32H28C30.209 32 32 30.209 32 28V4C32 1.79 30.209 0 28 0H4C1.791 0 0 1.79 0 4V28C0 30.209 1.791 32 4 32Z" fill="#C1082D"/>
<path d="M20.586 15H10C9.447 15 9 15.447 9 16C9 16.552 9.447 17 10 17H20.586L16.465 21.121C16.074 21.512 16.074 22.145 16.465 22.535C16.855 22.926 17.488 22.926 17.879 22.535L23.535 16.879C23.775 16.639 23.85 16.311 23.795 16C23.85 15.689 23.775 15.361 23.535 15.121L17.879 9.46002C17.488 9.07002 16.855 9.07002 16.465 9.46002C16.074 9.85002 16.074 10.49 16.465 10.88L20.586 15Z" fill="white"/>
</g>
<defs>
<clipPath id="clip0_40_2">
<rect width="32" height="32" fill="white" transform="matrix(-1 0 0 -1 32 32)"/>
</clipPath>
</defs>
</svg>
